<?xml version="1.0" encoding="UTF-8" standalone="no"?>
<svg
   width="145mm"
   height="80mm"
   viewBox="0 0 14500 8000"
   version="1.1"
   stroke-width="28.222"
   stroke-linejoin="round"
   xml:space="preserve"
   id="svg168"
   sodipodi:docname="exemplo_dez_lancamentos.svg"
   inkscape:version="1.3.2 (091e20ef0f, 2023-11-25)"
   xmlns:inkscape="http://www.inkscape.org/namespaces/inkscape"
   xmlns:sodipodi="http://sodipodi.sourceforge.net/DTD/sodipodi-0.dtd"
   xmlns="http://www.w3.org/2000/svg"
   xmlns:svg="http://www.w3.org/2000/svg"><defs
   id="defs168" /><sodipodi:namedview
   id="namedview168"
   pagecolor="#ffffff"
   bordercolor="#000000"
   borderopacity="0.25"
   inkscape:showpageshadow="2"
   inkscape:pageopacity="0.0"
   inkscape:pagecheckerboard="0"
   inkscape:deskcolor="#d1d1d1"
   inkscape:document-units="mm"
   showgrid="true"
   inkscape:zoom="1.625736"
   inkscape:cx="273.72217"
   inkscape:cy="151.31608"
   inkscape:window-width="1920"
   inkscape:window-height="1058"
   inkscape:window-x="0"
   inkscape:window-y="0"
   inkscape:window-maximized="1"
   inkscape:current-layer="svg168"><inkscape:grid
     id="grid168"
     units="mm"
     originx="0"
     originy="0"
     spacingx="500"
     spacingy="500"
     empcolor="#0099e5"
     empopacity="0.30196078"
     color="#0099e5"
     opacity="0.14901961"
     empspacing="5"
     dotted="false"
     gridanglex="30"
     gridanglez="30"
     visible="true" /></sodipodi:namedview>
 
 <path
   fill="none"
   stroke="#b3b3b3"
   stroke-linejoin="round"
   d="M 7113,7002.0001 H 1500 v -5716 h 11227 v 5716 z"
   id="path2" />
 <path
   fill="none"
   stroke="#b3b3b3"
   stroke-linejoin="round"
   d="M 12727,7001.0001 H 1500"
   id="path3" />
 <path
   fill="none"
   stroke="#b3b3b3"
   stroke-linejoin="round"
   d="M 12727,6048.0001 H 1500"
   id="path4" />
 <path
   fill="none"
   stroke="#b3b3b3"
   stroke-linejoin="round"
   d="M 12727,5095.0001 H 1500"
   id="path5" />
 <path
   fill="none"
   stroke="#b3b3b3"
   stroke-linejoin="round"
   d="M 12727,4143.0001 H 1500"
   id="path6" />
 <path
   fill="none"
   stroke="#b3b3b3"
   stroke-linejoin="round"
   d="M 12727,3190.0001 H 1500"
   id="path7" />
 <path
   fill="none"
   stroke="#b3b3b3"
   stroke-linejoin="round"
   d="M 12727,2237.0001 H 1500"
   id="path8" />
 <path
   fill="none"
   stroke="#b3b3b3"
   stroke-linejoin="round"
   d="M 12727,1284.0001 H 1500"
   id="path9" />
 <path
   fill="none"
   stroke="#b3b3b3"
   stroke-linejoin="round"
   d="m 1500,7151.0001 v -150"
   id="path10" />
 <path
   fill="none"
   stroke="#b3b3b3"
   stroke-linejoin="round"
   d="m 1500,7151.0001 v -150"
   id="path11" />
 <path
   fill="none"
   stroke="#b3b3b3"
   stroke-linejoin="round"
   d="m 3371,7151.0001 v -150"
   id="path12" />
 <path
   fill="none"
   stroke="#b3b3b3"
   stroke-linejoin="round"
   d="m 3371,7151.0001 v -150"
   id="path13" />
 <path
   fill="none"
   stroke="#b3b3b3"
   stroke-linejoin="round"
   d="m 5242,7151.0001 v -150"
   id="path14" />
 <path
   fill="none"
   stroke="#b3b3b3"
   stroke-linejoin="round"
   d="m 5242,7151.0001 v -150"
   id="path15" />
 <path
   fill="none"
   stroke="#b3b3b3"
   stroke-linejoin="round"
   d="m 7113,7151.0001 v -150"
   id="path16" />
 <path
   fill="none"
   stroke="#b3b3b3"
   stroke-linejoin="round"
   d="m 7113,7151.0001 v -150"
   id="path17" />
 <path
   fill="none"
   stroke="#b3b3b3"
   stroke-linejoin="round"
   d="m 8984,7151.0001 v -150"
   id="path18" />
 <path
   fill="none"
   stroke="#b3b3b3"
   stroke-linejoin="round"
   d="m 8984,7151.0001 v -150"
   id="path19" />
 <path
   fill="none"
   stroke="#b3b3b3"
   stroke-linejoin="round"
   d="m 10855,7151.0001 v -150"
   id="path20" />
 <path
   fill="none"
   stroke="#b3b3b3"
   stroke-linejoin="round"
   d="m 10855,7151.0001 v -150"
   id="path21" />
 <path
   fill="none"
   stroke="#b3b3b3"
   stroke-linejoin="round"
   d="m 12727,7151.0001 v -150"
   id="path22" />
 <path
   fill="none"
   stroke="#b3b3b3"
   stroke-linejoin="round"
   d="m 12727,7151.0001 v -150"
   id="path23" />
 <path
   fill="none"
   stroke="#b3b3b3"
   stroke-linejoin="round"
   d="M 1500,7001.0001 H 12727"
   id="path24" />
 <path
   fill="none"
   stroke="#b3b3b3"
   stroke-linejoin="round"
   d="m 1350,7001.0001 h 150"
   id="path25" />
 <path
   fill="none"
   stroke="#b3b3b3"
   stroke-linejoin="round"
   d="m 1350,7001.0001 h 150"
   id="path26" />
 <path
   fill="none"
   stroke="#b3b3b3"
   stroke-linejoin="round"
   d="m 1350,6048.0001 h 150"
   id="path27" />
 <path
   fill="none"
   stroke="#b3b3b3"
   stroke-linejoin="round"
   d="m 1350,6048.0001 h 150"
   id="path28" />
 <path
   fill="none"
   stroke="#b3b3b3"
   stroke-linejoin="round"
   d="m 1350,5095.0001 h 150"
   id="path29" />
 <path
   fill="none"
   stroke="#b3b3b3"
   stroke-linejoin="round"
   d="m 1350,5095.0001 h 150"
   id="path30" />
 <path
   fill="none"
   stroke="#b3b3b3"
   stroke-linejoin="round"
   d="m 1350,4143.0001 h 150"
   id="path31" />
 <path
   fill="none"
   stroke="#b3b3b3"
   stroke-linejoin="round"
   d="m 1350,4143.0001 h 150"
   id="path32" />
 <path
   fill="none"
   stroke="#b3b3b3"
   stroke-linejoin="round"
   d="m 1350,3190.0001 h 150"
   id="path33" />
 <path
   fill="none"
   stroke="#b3b3b3"
   stroke-linejoin="round"
   d="m 1350,3190.0001 h 150"
   id="path34" />
 <path
   fill="none"
   stroke="#b3b3b3"
   stroke-linejoin="round"
   d="m 1350,2237.0001 h 150"
   id="path35" />
 <path
   fill="none"
   stroke="#b3b3b3"
   stroke-linejoin="round"
   d="m 1350,2237.0001 h 150"
   id="path36" />
 <path
   fill="none"
   stroke="#b3b3b3"
   stroke-linejoin="round"
   d="m 1350,1284.0001 h 150"
   id="path37" />
 <path
   fill="none"
   stroke="#b3b3b3"
   stroke-linejoin="round"
   d="m 1350,1284.0001 h 150"
   id="path38" />
 <path
   fill="none"
   stroke="#b3b3b3"
   stroke-linejoin="round"
   d="m 1500,7001.0001 v -5716"
   id="path39" />
 <path
   fill="#ffd320"
   stroke="none"
   d="m 1375,6875.0001 125,250 125,-250 z"
   id="path40" />
 <path
   fill="none"
   stroke="#ffd320"
   stroke-linejoin="round"
   d="m 1375,6875.0001 125,250 125,-250 z"
   id="path41" />
 <path
   fill="#ffd320"
   stroke="none"
   d="m 2310,6873.0001 125,250 125,-250 z"
   id="path42" />
 <path
   fill="none"
   stroke="#ffd320"
   stroke-linejoin="round"
   d="m 2310,6873.0001 125,250 125,-250 z"
   id="path43" />
 <path
   fill="#ffd320"
   stroke="none"
   d="m 3246,6848.0001 125,250 125,-250 z"
   id="path44" />
 <path
   fill="none"
   stroke="#ffd320"
   stroke-linejoin="round"
   d="m 3246,6848.0001 125,250 125,-250 z"
   id="path45" />
 <path
   fill="#ffd320"
   stroke="none"
   d="m 4182,6704.0001 125,250 125,-250 z"
   id="path46" />
 <path
   fill="none"
   stroke="#ffd320"
   stroke-linejoin="round"
   d="m 4182,6704.0001 125,250 125,-250 z"
   id="path47" />
 <path
   fill="#ffd320"
   stroke="none"
   d="m 5117,6175.0001 125,250 125,-250 z"
   id="path48" />
 <path
   fill="none"
   stroke="#ffd320"
   stroke-linejoin="round"
   d="m 5117,6175.0001 125,250 125,-250 z"
   id="path49" />
 <path
   fill="#ffd320"
   stroke="none"
   d="m 6053,4914.0001 125,250 125,-250 z"
   id="path50" />
 <path
   fill="none"
   stroke="#ffd320"
   stroke-linejoin="round"
   d="m 6053,4914.0001 125,250 125,-250 z"
   id="path51" />
 <path
   fill="#ffd320"
   stroke="none"
   d="m 6988,3063.0001 125,250 125,-250 z"
   id="path52" />
 <path
   fill="none"
   stroke="#ffd320"
   stroke-linejoin="round"
   d="m 6988,3063.0001 125,250 125,-250 z"
   id="path53" />
 <path
   fill="#ffd320"
   stroke="none"
   d="m 7923,1792.0001 125,250 125,-250 z"
   id="path54" />
 <path
   fill="none"
   stroke="#ffd320"
   stroke-linejoin="round"
   d="m 7923,1792.0001 125,250 125,-250 z"
   id="path55" />
 <path
   fill="#ffd320"
   stroke="none"
   d="m 8859,2427.0001 125,250 125,-250 z"
   id="path56" />
 <path
   fill="none"
   stroke="#ffd320"
   stroke-linejoin="round"
   d="m 8859,2427.0001 125,250 125,-250 z"
   id="path57" />
 <path
   fill="#ffd320"
   stroke="none"
   d="m 9795.0001,4568.0001 125,250 124.9999,-250 z"
   id="path58" />
 <path
   fill="none"
   stroke="#ffd320"
   stroke-linejoin="round"
   d="m 9795.0001,4568.0001 125,250 124.9999,-250 z"
   id="path59" />
 <path
   fill="#ffd320"
   stroke="none"
   d="m 10730,6337.0001 125,250 125,-250 z"
   id="path60" />
 <path
   fill="none"
   stroke="#ffd320"
   stroke-linejoin="round"
   d="m 10730,6337.0001 125,250 125,-250 z"
   id="path61" />
 <path
   fill="#ff420e"
   stroke="none"
   d="m 1375,6462.0001 125,125 125,-125 -125,-125 z"
   id="path62" />
 <path
   fill="none"
   stroke="#ff420e"
   stroke-linejoin="round"
   d="m 1375,6462.0001 125,125 125,-125 -125,-125 z"
   id="path63" />
 <path
   fill="#ff420e"
   stroke="none"
   d="m 2310,4693.0001 125,125 125,-125 -125,-125 z"
   id="path64" />
 <path
   fill="none"
   stroke="#ff420e"
   stroke-linejoin="round"
   d="m 2310,4693.0001 125,125 125,-125 -125,-125 z"
   id="path65" />
 <path
   fill="#ff420e"
   stroke="none"
   d="m 3246,2552.0001 125,125 125,-125 -125,-125 z"
   id="path66" />
 <path
   fill="none"
   stroke="#ff420e"
   stroke-linejoin="round"
   d="m 3246,2552.0001 125,125 125,-125 -125,-125 z"
   id="path67" />
 <path
   fill="#ff420e"
   stroke="none"
   d="m 4182,1917.0001 125,125 125,-125 -125,-125 z"
   id="path68" />
 <path
   fill="none"
   stroke="#ff420e"
   stroke-linejoin="round"
   d="m 4182,1917.0001 125,125 125,-125 -125,-125 z"
   id="path69" />
 <path
   fill="#ff420e"
   stroke="none"
   d="m 5117,3188.0001 125,125 125,-125 -125,-125 z"
   id="path70" />
 <path
   fill="none"
   stroke="#ff420e"
   stroke-linejoin="round"
   d="m 5117,3188.0001 125,125 125,-125 -125,-125 z"
   id="path71" />
 <path
   fill="#ff420e"
   stroke="none"
   d="m 6053,5039.0001 125,125 125,-125 -125,-125 z"
   id="path72" />
 <path
   fill="none"
   stroke="#ff420e"
   stroke-linejoin="round"
   d="m 6053,5039.0001 125,125 125,-125 -125,-125 z"
   id="path73" />
 <path
   fill="#ff420e"
   stroke="none"
   d="m 6988,6300.0001 125,125 125,-125 -125,-125 z"
   id="path74" />
 <path
   fill="none"
   stroke="#ff420e"
   stroke-linejoin="round"
   d="m 6988,6300.0001 125,125 125,-125 -125,-125 z"
   id="path75" />
 <path
   fill="#ff420e"
   stroke="none"
   d="m 7923,6829.0001 125,125 125,-125 -125,-125 z"
   id="path76" />
 <path
   fill="none"
   stroke="#ff420e"
   stroke-linejoin="round"
   d="m 7923,6829.0001 125,125 125,-125 -125,-125 z"
   id="path77" />
 <path
   fill="#ff420e"
   stroke="none"
   d="m 8859,6973.0001 125,125 125,-125 -125,-125 z"
   id="path78" />
 <path
   fill="none"
   stroke="#ff420e"
   stroke-linejoin="round"
   d="m 8859,6973.0001 125,125 125,-125 -125,-125 z"
   id="path79" />
 <path
   fill="#ff420e"
   stroke="none"
   d="m 9795.0001,6998.0001 125,125 124.9999,-125 -124.9999,-125 z"
   id="path80" />
 <path
   fill="none"
   stroke="#ff420e"
   stroke-linejoin="round"
   d="m 9795.0001,6998.0001 125,125 124.9999,-125 -124.9999,-125 z"
   id="path81" />
 <path
   fill="#ff420e"
   stroke="none"
   d="m 10730,7000.0001 125,125 125,-125 -125,-125 z"
   id="path82" />
 <path
   fill="none"
   stroke="#ff420e"
   stroke-linejoin="round"
   d="m 10730,7000.0001 125,125 125,-125 -125,-125 z"
   id="path83" />
 <path
   fill="#004586"
   stroke="none"
   d="m 1375,6857.0001 v 250 h 250 v -250 z"
   id="path84" />
 <path
   fill="none"
   stroke="#004586"
   stroke-linejoin="round"
   d="m 1375,6857.0001 v 250 h 250 v -250 z"
   id="path85" />
 <path
   fill="#004586"
   stroke="none"
   d="m 2310,6689.0001 v 250 h 250 v -250 z"
   id="path86" />
 <path
   fill="none"
   stroke="#004586"
   stroke-linejoin="round"
   d="m 2310,6689.0001 v 250 h 250 v -250 z"
   id="path87" />
 <path
   fill="#004586"
   stroke="none"
   d="m 3246,6038.0001 v 250 h 250 v -250 z"
   id="path88" />
 <path
   fill="none"
   stroke="#004586"
   stroke-linejoin="round"
   d="m 3246,6038.0001 v 250 h 250 v -250 z"
   id="path89" />
 <path
   fill="#004586"
   stroke="none"
   d="m 4182,4642.0001 v 250 h 250 v -250 z"
   id="path90" />
 <path
   fill="none"
   stroke="#004586"
   stroke-linejoin="round"
   d="m 4182,4642.0001 v 250 h 250 v -250 z"
   id="path91" />
 <path
   fill="#004586"
   stroke="none"
   d="m 5117,2968.0001 v 250 h 250 v -250 z"
   id="path92" />
 <path
   fill="none"
   stroke="#004586"
   stroke-linejoin="round"
   d="m 5117,2968.0001 v 250 h 250 v -250 z"
   id="path93" />
 <path
   fill="#004586"
   stroke="none"
   d="m 6053,2187.0001 v 250 h 250 v -250 z"
   id="path94" />
 <path
   fill="none"
   stroke="#004586"
   stroke-linejoin="round"
   d="m 6053,2187.0001 v 250 h 250 v -250 z"
   id="path95" />
 <path
   fill="#004586"
   stroke="none"
   d="m 6988,2968.0001 v 250 h 250 v -250 z"
   id="path96" />
 <path
   fill="none"
   stroke="#004586"
   stroke-linejoin="round"
   d="m 6988,2968.0001 v 250 h 250 v -250 z"
   id="path97" />
 <path
   fill="#004586"
   stroke="none"
   d="m 7923,4642.0001 v 250 h 250 v -250 z"
   id="path98" />
 <path
   fill="none"
   stroke="#004586"
   stroke-linejoin="round"
   d="m 7923,4642.0001 v 250 h 250 v -250 z"
   id="path99" />
 <path
   fill="#004586"
   stroke="none"
   d="m 8859,6038.0001 v 250 h 250 v -250 z"
   id="path100" />
 <path
   fill="none"
   stroke="#004586"
   stroke-linejoin="round"
   d="m 8859,6038.0001 v 250 h 250 v -250 z"
   id="path101" />
 <path
   fill="#004586"
   stroke="none"
   d="m 9795.0001,6689.0001 v 250 H 10045 v -250 z"
   id="path102" />
 <path
   fill="none"
   stroke="#004586"
   stroke-linejoin="round"
   d="m 9795.0001,6689.0001 v 250 H 10045 v -250 z"
   id="path103" />
 <path
   fill="#004586"
   stroke="none"
   d="m 10730,6857.0001 v 250 h 250 v -250 z"
   id="path104" />
 <path
   fill="none"
   stroke="#004586"
   stroke-linejoin="round"
   d="m 10730,6857.0001 v 250 h 250 v -250 z"
   id="path105" />
 <text
   class="SVGTextShape"
   id="text107"
   x="-1120.9999"
   y="-175.99989"><tspan
     class="TextParagraph"
     id="tspan107"><tspan
       class="TextPosition"
       x="1405.0001"
       y="7569"
       id="tspan106"><tspan
         font-family="'Liberation Sans', sans-serif"
         font-size="353px"
         font-weight="400"
         fill="#000000"
         stroke="none"
         style="white-space:pre"
         id="tspan105">0</tspan></tspan></tspan></text>
 <text
   class="SVGTextShape"
   id="text110"
   x="-1120.9999"
   y="-175.99989"><tspan
     class="TextParagraph"
     id="tspan110"><tspan
       class="TextPosition"
       x="3276"
       y="7569"
       id="tspan109"><tspan
         font-family="'Liberation Sans', sans-serif"
         font-size="353px"
         font-weight="400"
         fill="#000000"
         stroke="none"
         style="white-space:pre"
         id="tspan108">2</tspan></tspan></tspan></text>
 <text
   class="SVGTextShape"
   id="text113"
   x="-1120.9999"
   y="-175.99989"><tspan
     class="TextParagraph"
     id="tspan113"><tspan
       class="TextPosition"
       x="5147"
       y="7569"
       id="tspan112"><tspan
         font-family="'Liberation Sans', sans-serif"
         font-size="353px"
         font-weight="400"
         fill="#000000"
         stroke="none"
         style="white-space:pre"
         id="tspan111">4</tspan></tspan></tspan></text>
 <text
   class="SVGTextShape"
   id="text116"
   x="-1120.9999"
   y="-175.99989"><tspan
     class="TextParagraph"
     id="tspan116"><tspan
       class="TextPosition"
       x="7018"
       y="7569"
       id="tspan115"><tspan
         font-family="'Liberation Sans', sans-serif"
         font-size="353px"
         font-weight="400"
         fill="#000000"
         stroke="none"
         style="white-space:pre"
         id="tspan114">6</tspan></tspan></tspan></text>
 <text
   class="SVGTextShape"
   id="text119"
   x="-1120.9999"
   y="-175.99989"><tspan
     class="TextParagraph"
     id="tspan119"><tspan
       class="TextPosition"
       x="8889"
       y="7569"
       id="tspan118"><tspan
         font-family="'Liberation Sans', sans-serif"
         font-size="353px"
         font-weight="400"
         fill="#000000"
         stroke="none"
         style="white-space:pre"
         id="tspan117">8</tspan></tspan></tspan></text>
 <text
   class="SVGTextShape"
   id="text122"
   x="-1120.9999"
   y="-175.99989"><tspan
     class="TextParagraph"
     id="tspan122"><tspan
       class="TextPosition"
       x="10664"
       y="7569"
       id="tspan121"><tspan
         font-family="'Liberation Sans', sans-serif"
         font-size="353px"
         font-weight="400"
         fill="#000000"
         stroke="none"
         style="white-space:pre"
         id="tspan120">10</tspan></tspan></tspan></text>
 <text
   class="SVGTextShape"
   id="text125"
   x="-1120.9999"
   y="-175.99989"><tspan
     class="TextParagraph"
     id="tspan125"><tspan
       class="TextPosition"
       x="12536"
       y="7569"
       id="tspan124"><tspan
         font-family="'Liberation Sans', sans-serif"
         font-size="353px"
         font-weight="400"
         fill="#000000"
         stroke="none"
         style="white-space:pre"
         id="tspan123">12</tspan></tspan></tspan></text>
 <text
   class="SVGTextShape"
   id="text128"
   x="-832.78906"
   y="-175.99989"><tspan
     class="TextParagraph"
     id="tspan128"><tspan
       class="TextPosition"
       x="486.21094"
       y="7122"
       id="tspan127"><tspan
         font-family="'Liberation Sans', sans-serif"
         font-size="353px"
         font-weight="400"
         fill="#000000"
         stroke="none"
         style="white-space:pre"
         id="tspan126">0,00</tspan></tspan></tspan></text>
 <text
   class="SVGTextShape"
   id="text131"
   x="-832.78906"
   y="-175.99989"><tspan
     class="TextParagraph"
     id="tspan131"><tspan
       class="TextPosition"
       x="486.21094"
       y="6169"
       id="tspan130"><tspan
         font-family="'Liberation Sans', sans-serif"
         font-size="353px"
         font-weight="400"
         fill="#000000"
         stroke="none"
         style="white-space:pre"
         id="tspan129">0,05</tspan></tspan></tspan></text>
 <text
   class="SVGTextShape"
   id="text134"
   x="-832.78906"
   y="-175.99989"><tspan
     class="TextParagraph"
     id="tspan134"><tspan
       class="TextPosition"
       x="486.21094"
       y="5216"
       id="tspan133"><tspan
         font-family="'Liberation Sans', sans-serif"
         font-size="353px"
         font-weight="400"
         fill="#000000"
         stroke="none"
         style="white-space:pre"
         id="tspan132">0,10</tspan></tspan></tspan></text>
 <text
   class="SVGTextShape"
   id="text137"
   x="-832.78906"
   y="-175.99989"><tspan
     class="TextParagraph"
     id="tspan137"><tspan
       class="TextPosition"
       x="486.21094"
       y="4264.0005"
       id="tspan136"><tspan
         font-family="'Liberation Sans', sans-serif"
         font-size="353px"
         font-weight="400"
         fill="#000000"
         stroke="none"
         style="white-space:pre"
         id="tspan135">0,15</tspan></tspan></tspan></text>
 <text
   class="SVGTextShape"
   id="text140"
   x="-832.78906"
   y="-175.99989"><tspan
     class="TextParagraph"
     id="tspan140"><tspan
       class="TextPosition"
       x="486.21094"
       y="3311.0002"
       id="tspan139"><tspan
         font-family="'Liberation Sans', sans-serif"
         font-size="353px"
         font-weight="400"
         fill="#000000"
         stroke="none"
         style="white-space:pre"
         id="tspan138">0,20</tspan></tspan></tspan></text>
 <text
   class="SVGTextShape"
   id="text143"
   x="-832.78906"
   y="-175.99989"><tspan
     class="TextParagraph"
     id="tspan143"><tspan
       class="TextPosition"
       x="486.21094"
       y="2358"
       id="tspan142"><tspan
         font-family="'Liberation Sans', sans-serif"
         font-size="353px"
         font-weight="400"
         fill="#000000"
         stroke="none"
         style="white-space:pre"
         id="tspan141">0,25</tspan></tspan></tspan></text>
 <text
   class="SVGTextShape"
   id="text146"
   x="-832.78906"
   y="-175.99989"><tspan
     class="TextParagraph"
     id="tspan146"><tspan
       class="TextPosition"
       x="486.21094"
       y="1405.0001"
       id="tspan145"><tspan
         font-family="'Liberation Sans', sans-serif"
         font-size="353px"
         font-weight="400"
         fill="#000000"
         stroke="none"
         style="white-space:pre"
         id="tspan144">0,30</tspan></tspan></tspan></text>
 
 <path
   fill="#004586"
   stroke="none"
   d="m 12951.611,3394.5002 v 211 h 211 v -211 z"
   id="path149" />
 <path
   fill="none"
   stroke="#004586"
   stroke-linejoin="round"
   d="m 12951.611,3394.5002 v 211 h 211 v -211 z"
   id="path150" />
 <path
   fill="#ff420e"
   stroke="none"
   d="m 12951.611,3997.5002 105,105 106,-105 -106,-105 z"
   id="path151" />
 <path
   fill="none"
   stroke="#ff420e"
   stroke-linejoin="round"
   d="m 12951.611,3997.5002 105,105 106,-105 -106,-105 z"
   id="path152" />
 <path
   fill="#ffd320"
   stroke="none"
   d="m 12951.611,4389.5002 105,211 106,-211 z"
   id="path153" />
 <path
   fill="none"
   stroke="#ffd320"
   stroke-linejoin="round"
   d="m 12951.611,4389.5002 105,211 106,-211 z"
   id="path154" />
 <text
   class="SVGTextShape"
   id="text156"
   x="-1525.3885"
   y="-488.49979"><tspan
     class="TextParagraph"
     id="tspan156"><tspan
       class="TextPosition"
       x="13262.611"
       y="3619.5002"
       id="tspan155"><tspan
         font-family="'Liberation Sans', sans-serif"
         font-size="353px"
         font-weight="400"
         fill="#000000"
         stroke="none"
         style="white-space:pre"
         id="tspan154">p=0,5</tspan></tspan></tspan></text>
 <text
   class="SVGTextShape"
   id="text159"
   x="-1525.3885"
   y="-488.49979"><tspan
     class="TextParagraph"
     id="tspan159"><tspan
       class="TextPosition"
       x="13262.611"
       y="4116.5005"
       id="tspan158"><tspan
         font-family="'Liberation Sans', sans-serif"
         font-size="353px"
         font-weight="400"
         fill="#000000"
         stroke="none"
         style="white-space:pre"
         id="tspan157">p=0,3</tspan></tspan></tspan></text>
 <text
   class="SVGTextShape"
   id="text162"
   x="-1525.3885"
   y="-488.49979"><tspan
     class="TextParagraph"
     id="tspan162"><tspan
       class="TextPosition"
       x="13262.611"
       y="4614.5005"
       id="tspan161"><tspan
         font-family="'Liberation Sans', sans-serif"
         font-size="353px"
         font-weight="400"
         fill="#000000"
         stroke="none"
         style="white-space:pre"
         id="tspan160">p=0,7</tspan></tspan></tspan></text>
 <text
   class="SVGTextShape"
   id="text165"
   x="5399.0005"
   y="-1391.9998"><tspan
     class="TextParagraph"
     id="tspan165"><tspan
       class="TextPosition"
       x="13000"
       y="7000"
       id="tspan164"><tspan
         font-family="'Liberation Sans', sans-serif"
         font-size="318px"
         font-weight="400"
         fill="#000000"
         stroke="none"
         style="white-space:pre"
         id="tspan163">$k$</tspan></tspan></tspan></text>
 <text
   class="SVGTextShape"
   transform="rotate(-90)"
   id="text168"
   x="6608"
   y="-14980"><tspan
     class="TextParagraph"
     id="tspan168"><tspan
       class="TextPosition"
       x="7433"
       y="-10208"
       id="tspan167"><tspan
         font-family="'Liberation Sans', sans-serif"
         font-size="318px"
         font-weight="400"
         fill="#000000"
         stroke="none"
         style="white-space:pre"
         id="tspan166">f(k)</tspan></tspan></tspan></text>
<text
   class="SVGTextShape"
   id="text171"
   x="-6122.4272"
   y="-7661.5742"><tspan
     class="TextParagraph"
     id="tspan171"><tspan
       class="TextPosition"
       x="1478.5723"
       y="730.42578"
       id="tspan170"><tspan
         font-family="'Liberation Sans', sans-serif"
         font-size="318px"
         font-weight="400"
         fill="#000000"
         stroke="none"
         style="white-space:pre"
         id="tspan169">$f(k)$</tspan></tspan></tspan></text></svg>
